<svg width="17" height="11" viewBox="0 0 17 11" fill="none" xmlns="http://www.w3.org/2000/svg">
<path d="M14.4708 1.72713C14.4708 0.8993 13.7206 0.221985 12.8036 0.221985H10.3028V1.72713H12.8036V3.72145L9.90271 6.99513H6.96845V3.23227H3.63406C1.79181 3.23227 0.299667 4.57938 0.299667 6.24256V8.50028H1.96686C1.96686 9.74955 3.08388 10.758 4.46766 10.758C5.85143 10.758 6.96845 9.74955 6.96845 8.50028H10.703L14.4708 4.24825V1.72713ZM4.46766 9.25285C4.00918 9.25285 3.63406 8.91419 3.63406 8.50028H5.30125C5.30125 8.91419 4.92613 9.25285 4.46766 9.25285Z" fill="black"/>
<path d="M6.96845 0.974548H2.80045V2.47968H6.96845V0.974548Z" fill="black"/>
<path d="M14.4708 6.24255C13.087 6.24255 11.97 7.251 11.97 8.50026C11.97 9.74952 13.087 10.758 14.4708 10.758C15.8546 10.758 16.9716 9.74952 16.9716 8.50026C16.9716 7.251 15.8546 6.24255 14.4708 6.24255ZM14.4708 9.25283C14.0123 9.25283 13.6372 8.91417 13.6372 8.50026C13.6372 8.08635 14.0123 7.74769 14.4708 7.74769C14.9293 7.74769 15.3044 8.08635 15.3044 8.50026C15.3044 8.91417 14.9293 9.25283 14.4708 9.25283Z" fill="black"/>
</svg>
